<?xml version="1.0" standalone="no"?><!DOCTYPE svg PUBLIC "-//W3C//DTD SVG 1.1//EN" "http://www.w3.org/Graphics/SVG/1.1/DTD/svg11.dtd"><svg t="1556250222402" class="icon" style="" viewBox="0 0 1024 1024" version="1.1" xmlns="http://www.w3.org/2000/svg" p-id="1864" xmlns:xlink="http://www.w3.org/1999/xlink" width="200" height="200"><defs><style type="text/css"></style></defs><path d="M1005.568 528.384l-47.104-77.824c-2.048-2.048-6.144-4.096-8.192-4.096H839.68c-6.144 0-10.24 4.096-10.24 10.24v133.12c0 6.144 4.096 10.24 10.24 10.24h155.648c6.144 0 10.24-4.096 10.24-10.24V532.48c2.048-2.048 0-4.096 0-4.096z m-18.432 51.2H851.968v-112.64h92.16l43.008 69.632v43.008z" fill="" p-id="1865"></path><path d="M997.376 770.048h-102.4v-40.96h81.92V540.672l-96.256-153.6H704.512v342.016h45.056v40.96h-65.536c-12.288 0-20.48-8.192-20.48-20.48V366.592c0-12.288 8.192-20.48 20.48-20.48h208.896c6.144 0 14.336 4.096 16.384 10.24l104.448 167.936c2.048 4.096 4.096 6.144 4.096 10.24v215.04c0 10.24-10.24 20.48-20.48 20.48z" fill="" p-id="1866"></path><path d="M684.032 770.048H405.504v-40.96h258.048v-471.04h-471.04c-22.528 0-40.96 18.432-40.96 40.96v430.08h108.544v40.96H131.072c-12.288 0-20.48-8.192-20.48-20.48v-450.56c0-45.056 36.864-81.92 81.92-81.92h491.52c12.288 0 20.48 8.192 20.48 20.48v512c0 10.24-10.24 20.48-20.48 20.48z" fill="" p-id="1867"></path><path d="M331.776 864.256c-53.248 0-96.256-43.008-96.256-96.256s43.008-96.256 96.256-96.256 96.256 43.008 96.256 96.256-43.008 96.256-96.256 96.256z m0-149.504c-30.72 0-55.296 24.576-55.296 55.296s24.576 55.296 55.296 55.296 55.296-24.576 55.296-55.296-24.576-55.296-55.296-55.296z m489.472 149.504c-53.248 0-96.256-43.008-96.256-96.256s43.008-96.256 96.256-96.256 96.256 43.008 96.256 96.256-43.008 96.256-96.256 96.256z m0-149.504c-30.72 0-55.296 24.576-55.296 55.296s24.576 55.296 55.296 55.296 55.296-24.576 55.296-55.296-24.576-55.296-55.296-55.296z" fill="" p-id="1868"></path><path d="M292.864 378.88h-204.8" fill="#4A90E2" p-id="1869"></path><path d="M292.864 389.12h-204.8c-6.144 0-10.24-4.096-10.24-10.24s4.096-10.24 10.24-10.24h204.8c6.144 0 10.24 4.096 10.24 10.24s-4.096 10.24-10.24 10.24z" fill="" p-id="1870"></path><path d="M51.2 378.88H26.624" fill="#4A90E2" p-id="1871"></path><path d="M51.2 389.12H26.624c-6.144 0-10.24-4.096-10.24-10.24s6.144-10.24 10.24-10.24h22.528c6.144 0 12.288 4.096 12.288 10.24s-6.144 10.24-10.24 10.24z" fill="" p-id="1872"></path><path d="M157.696 446.464h-51.2" fill="#4A90E2" p-id="1873"></path><path d="M157.696 456.704h-51.2c-6.144 0-10.24-4.096-10.24-10.24s4.096-10.24 10.24-10.24h51.2c6.144 0 10.24 4.096 10.24 10.24s-4.096 10.24-10.24 10.24z" fill="" p-id="1874"></path><path d="M722.944 649.216H583.68" fill="#4A90E2" p-id="1875"></path><path d="M722.944 659.456H585.728c-6.144 0-10.24-4.096-10.24-10.24s4.096-10.24 10.24-10.24h137.216c6.144 0 10.24 4.096 10.24 10.24s-4.096 10.24-10.24 10.24z" fill="" p-id="1876"></path><path d="M538.624 649.216H522.24" fill="#4A90E2" p-id="1877"></path><path d="M538.624 659.456H522.24c-6.144 0-10.24-4.096-10.24-10.24s4.096-10.24 10.24-10.24h16.384c6.144 0 10.24 4.096 10.24 10.24s-4.096 10.24-10.24 10.24z" fill="" p-id="1878"></path></svg>