<?xml version="1.0" standalone="no"?><!DOCTYPE svg PUBLIC "-//W3C//DTD SVG 1.1//EN" "http://www.w3.org/Graphics/SVG/1.1/DTD/svg11.dtd"><svg t="1537363817058" class="icon" style="" viewBox="0 0 1024 1024" version="1.1" xmlns="http://www.w3.org/2000/svg" p-id="898" xmlns:xlink="http://www.w3.org/1999/xlink" width="200" height="200"><defs><style type="text/css"></style></defs><path d="M486.497064 437.861488H265.18118c-12.82314 0-23.218648 10.395508-23.218648 23.218647s10.395508 23.218648 23.218648 23.218648h221.315884c12.82314 0 23.218648-10.395508 23.218648-23.218648s-10.395508-23.218648-23.218648-23.218647zM572.325276 286.06844H265.18118c-12.82314 0-23.218648 10.395508-23.218648 23.218648s10.395508 23.218648 23.218648 23.218647h307.144096c12.82314 0 23.218648-10.395508 23.218647-23.218647s-10.395508-23.218648-23.218647-23.218648zM759.355336 589.654535H265.18118c-12.82314 0-23.218648 10.395508-23.218648 23.218647s10.395508 23.218648 23.218648 23.218648h494.174156c12.82314 0 23.218648-10.395508 23.218648-23.218648s-10.395508-23.218648-23.218648-23.218647zM588.212904 436.905179l-10.697554 14.749068-0.346073 29.467419c-0.052218 4.459021 3.372678 7.714976 7.447742 7.714976 0.843682 0 1.713984-0.139248 2.588382-0.436175l27.901899-9.482202 10.697554-14.749068-37.59195-27.264018zM872.253028 62.633113c-7.599277 0-15.294799 3.725919-20.30979 10.640216L600.868127 419.456125l37.591949 27.264018L889.535188 100.538372c8.043643-11.089702 6.148431-26.183819-4.232742-33.712449-3.907146-2.834115-8.461388-4.19281-13.049418-4.19281zM759.355336 741.446558H265.18118c-12.82314 0-23.218648 10.395508-23.218648 23.218647s10.395508 23.218648 23.218648 23.218648h494.174156c12.82314 0 23.218648-10.395508 23.218648-23.218648s-10.395508-23.218648-23.218648-23.218647z" fill="" p-id="899"></path><path d="M848.090358 342.039132V893.005135c0 11.108132-9.005071 20.113203-20.113203 20.113204H193.154943c-11.108132 0-20.113203-9.005071-20.113204-20.113204V161.945894c0-11.108132 9.005071-20.113203 20.113204-20.113203h424.306269c12.82314 0 23.218648-10.395508 23.218648-23.218648s-10.395508-23.218648-23.218648-23.218647H193.154943c-36.755435 0-66.551522 29.796087-66.551523 66.551522v731.060265c0 36.755435 29.796087 66.550498 66.550499 66.550499h634.822212c36.755435 0 66.550498-29.796087 66.550498-66.550499V342.039132c0-12.82314-10.395508-23.218648-23.218647-23.218648-12.822116 0-23.217624 10.395508-23.217624 23.218648z" fill="" p-id="900"></path></svg>