<?xml version="1.0" standalone="no"?><!DOCTYPE svg PUBLIC "-//W3C//DTD SVG 1.1//EN" "http://www.w3.org/Graphics/SVG/1.1/DTD/svg11.dtd"><svg t="1537363874629" class="icon" style="" viewBox="0 0 1024 1024" version="1.1" xmlns="http://www.w3.org/2000/svg" p-id="1395" xmlns:xlink="http://www.w3.org/1999/xlink" width="200" height="200"><defs><style type="text/css"></style></defs><path d="M320 488v-80c0-13.254 10.746-24 24-24h80c13.254 0 24 10.746 24 24v80c0 13.254-10.746 24-24 24h-80c-13.254 0-24-10.746-24-24z m280 24h80c13.254 0 24-10.746 24-24v-80c0-13.254-10.746-24-24-24h-80c-13.254 0-24 10.746-24 24v80c0 13.254 10.746 24 24 24z m-152 168v-80c0-13.254-10.746-24-24-24h-80c-13.254 0-24 10.746-24 24v80c0 13.254 10.746 24 24 24h80c13.254 0 24-10.746 24-24z m152 24h80c13.254 0 24-10.746 24-24v-80c0-13.254-10.746-24-24-24h-80c-13.254 0-24 10.746-24 24v80c0 13.254 10.746 24 24 24z m360 248v72H64v-72c0-13.254 10.746-24 24-24h39V170.07C127 146.836 148.49 128 175 128H352V48c0-26.51 21.49-48 48-48h224c26.51 0 48 21.49 48 48v80h177c26.51 0 48 18.836 48 42.07V928H936c13.254 0 24 10.746 24 24zM223 926H448v-134c0-13.254 10.746-24 24-24h80c13.254 0 24 10.746 24 24v134h225V224H672v48c0 26.51-21.49 48-48 48H400c-26.51 0-48-21.49-48-48v-48H223v702zM596 128h-52V76a12 12 0 0 0-12-12h-40a12 12 0 0 0-12 12v52h-52a12 12 0 0 0-12 12v40a12 12 0 0 0 12 12h52v52a12 12 0 0 0 12 12h40a12 12 0 0 0 12-12V192h52a12 12 0 0 0 12-12V140a12 12 0 0 0-12-12z" fill="" p-id="1396"></path></svg>