<?xml version="1.0" standalone="no"?><!DOCTYPE svg PUBLIC "-//W3C//DTD SVG 1.1//EN" "http://www.w3.org/Graphics/SVG/1.1/DTD/svg11.dtd"><svg t="1556780771722" class="icon" style="" viewBox="0 0 1024 1024" version="1.1" xmlns="http://www.w3.org/2000/svg" p-id="2398" xmlns:xlink="http://www.w3.org/1999/xlink" width="200" height="200"><defs><style type="text/css"></style></defs><path d="M849.517595 533.580504c11.134595 10.446933 28.652574 9.917884 39.108716-1.196245 10.455119-11.089569 9.940396-28.579919-1.194198-39.014572L532.475845 159.445432l0.044002-0.035816c-11.158131-10.479679-28.694529-9.964956-39.198767 1.160429l-0.563842 0.633427L136.840086 490.322281l18.757203 20.222577-18.85237-20.304442c-11.229762 10.375302-11.909238 27.90249-1.500167 39.107693 5.440919 5.873778 12.894681 8.852622 20.35356 8.852622l0 0.021489 92.565209 0 0 306.234613c0 15.276938 12.404518 27.66713 27.714202 27.66713l137.863904 0c15.311731 0 27.716248-12.390191 27.716248-27.66713L441.457876 681.737846l144.075373 0 0 162.718989c0 15.276938 12.404518 27.66713 27.716248 27.66713l137.888464 0c15.307637 0 27.734668-12.390191 27.734668-27.66713L778.872628 548.622082c0-15.287171-12.42703-27.678386-27.734668-27.678386-15.312754 0-27.716248 12.391215-27.716248 27.678386l0 268.156366-82.461083 0L640.960629 654.05946c0-15.274892-12.403494-27.653827-27.711132-27.653827L413.740604 626.405633c-15.309684 0-27.712155 12.379958-27.712155 27.653827l0 162.718989-82.438571 0 0-306.234613c0-15.286148-12.426007-27.689642-27.714202-27.689642l-49.752124 0 287.170418-265.565355L849.517595 533.580504 849.517595 533.580504 849.517595 533.580504zM849.517595 533.580504" p-id="2399"></path></svg>