<?xml version="1.0" standalone="no"?><!DOCTYPE svg PUBLIC "-//W3C//DTD SVG 1.1//EN" "http://www.w3.org/Graphics/SVG/1.1/DTD/svg11.dtd"><svg t="1556780902610" class="icon" style="" viewBox="0 0 1024 1024" version="1.1" xmlns="http://www.w3.org/2000/svg" p-id="3509" xmlns:xlink="http://www.w3.org/1999/xlink" width="200" height="200"><defs><style type="text/css"></style></defs><path d="M512 64a448 448 0 1 0 448 448A448 448 0 0 0 512 64z m0 848a400 400 0 1 1 400-400 400 400 0 0 1-400 400z" fill="#B8B8B8" p-id="3510"></path><path d="M704 376h-64v-48a64 64 0 0 0-64-64h-128a64 64 0 0 0-64 64v48h-64a64 64 0 0 0-64 64v256a64 64 0 0 0 64 64h384a64 64 0 0 0 64-64v-256a64 64 0 0 0-64-64z m-288-48a32 32 0 0 1 32-32h128a32 32 0 0 1 32 32v48H416z m320 368a32 32 0 0 1-32 32H320a32 32 0 0 1-32-32v-256a32 32 0 0 1 32-32h384a32 32 0 0 1 32 32z" fill="#B8B8B8" p-id="3511"></path><path d="M568.64 461.6a52.16 52.16 0 0 1 17.28 41.44 57.28 57.28 0 0 1-9.92 35.36c-2.56 2.88-11.04 10.72-24.8 22.88a44 44 0 0 0-11.52 14.4 40.32 40.32 0 0 0-4.32 18.72v4h-33.76v-4a61.76 61.76 0 0 1 5.76-28.32 156.64 156.64 0 0 1 33.76-36.48l3.36-4.16a29.76 29.76 0 0 0-23.36-50.88 30.08 30.08 0 0 0-27.04 11.68 48 48 0 0 0-7.2 28.32h-32.8A65.76 65.76 0 0 1 472.8 464a68.64 68.64 0 0 1 50.4-18.24 65.12 65.12 0 0 1 45.44 15.84z m-34.56 156.96a22.24 22.24 0 0 1 0 32 23.36 23.36 0 0 1-32 0 20.48 20.48 0 0 1-6.24-16 20.8 20.8 0 0 1 6.24-16 24.16 24.16 0 0 1 32 0z" fill="#B8B8B8" p-id="3512"></path></svg>