<?xml version="1.0" standalone="no"?><!DOCTYPE svg PUBLIC "-//W3C//DTD SVG 1.1//EN" "http://www.w3.org/Graphics/SVG/1.1/DTD/svg11.dtd"><svg t="1556250499513" class="icon" style="" viewBox="0 0 1024 1024" version="1.1" xmlns="http://www.w3.org/2000/svg" p-id="5326" xmlns:xlink="http://www.w3.org/1999/xlink" width="200" height="200"><defs><style type="text/css"></style></defs><path d="M628.7 429.8c0-19.9-16.3-36.1-36.1-36.1H212.8c-19.9 0-36.1 16.3-36.1 36.1 0 19.9 16.3 36.1 36.1 36.1h379.7c19.9 0.1 36.2-16.2 36.2-36.1zM206.8 555.3c-19.9 0-36.1 16.3-36.1 36.1 0 19.9 16.3 36.1 36.1 36.1h268.3c7.8-5.3 11.4-15 8.6-24.1-1.7-5.5-2.6-11.3-2.6-17.2 0-11.1 3.2-21.8 9-30.9H206.8zM206.8 716.9c-19.9 0-36.1 16.3-36.1 36.1 0 19.9 16.3 36.1 36.1 36.1h275.6c-2-4-5.2-7.4-9.3-9.6-18.2-9.6-30.7-28.8-30.7-50.8v-11.9H206.8z" p-id="5327"></path><path d="M532.4 916.6H140c-17.7 0-32.1-14.6-32.1-32.5V384.4c0-22.3 18.1-40.4 40.4-40.4h176.2c21.7 0 39.4-17.2 39.4-38.4V148.8c0-22.3 18.1-40.4 40.4-40.4h289.1c17.7 0 32.1 14.6 32.1 32.5v267.3c0 11.9 9.7 21.6 21.6 21.6s21.6-9.7 21.6-21.6V140.9c0-42-33.8-76.2-75.3-76.2H330.5v0.5c-11.8-1.8-23.8 1.7-32.9 10L77.1 277.8c-9.6 8.8-13.8 21.4-11.9 33.7h-0.5v572.6c0 42 33.8 76.2 75.3 76.2h392.4c11.9 0 21.6-9.7 21.6-21.6v-0.6c0-11.8-9.7-21.5-21.6-21.5zM98.5 307.8c-0.6-1.4-1.1-4 1.4-6.3L320.5 98.8c1.3-1.2 2.7-1.6 3.9-1.6 1 0 1.9 0.3 2.5 0.5 1.3 0.6 3.6 2 3.6 5.3v202.5c0 3.2-2.7 5.9-6 5.9H104c-3.5 0.1-4.9-2.2-5.5-3.6z" p-id="5328"></path><path d="M768.7 597.5c-13.1-7.1-27.7-11.8-43.2-13.6-4.6-0.5-9.3-0.8-14.1-0.8-27 0-52 8.9-72.2 23.9-7.1 5.3-13.7 11.4-19.5 18.1-19.4 22.4-30.7 51.9-29.4 83.9 0.1 2.6 0.3 5.3 0.6 7.9 2.8 26.3 14.1 50.2 31 68.8 21.2 23.2 51.3 38.2 84.7 39.5 6.4 0.2 12.7 0 18.9-0.7 15.5-1.8 30-6.5 43.2-13.6 38-20.5 63.8-60.7 63.8-106.8 0-46-25.9-86.1-63.8-106.6z m0 155.2c-10.9 12.9-26 22-43.2 25.3-5.9 1.1-11.9 1.6-18.2 1.2-38.1-2-68.9-32.8-71-70.9-2.4-43.3 32.2-79.2 75.1-79.2 4.8 0 9.5 0.5 14.1 1.3 17.2 3.3 32.3 12.4 43.2 25.3 11.1 13.1 17.8 30 17.8 48.5s-6.7 35.4-17.8 48.5z" p-id="5329"></path><path d="M929.5 628.8c-9.1-4.8-13.7-15.5-10.6-25.4 1.7-5.5 2.6-11.3 2.6-17.2 0-15.4-6-29.8-16.8-40.6l-34.8-34.8C859 500 844.6 494 829.3 494c-5.9 0-11.7 0.9-17.2 2.6-9.9 3.1-20.6-1.5-25.4-10.6-4.3-8.2-10.5-15.2-18.1-20.4-9.3-6.5-20.6-10.3-32.8-10.3h-49.1c-22 0-41.2 12.5-50.8 30.7-4.8 9.1-15.5 13.7-25.4 10.6-5.5-1.7-11.3-2.6-17.2-2.6-15.3 0-29.7 5.9-40.6 16.8L518 545.6c-3 3-5.6 6.2-7.8 9.7-5.9 9.1-9 19.8-9 30.9 0 5.9 0.9 11.7 2.6 17.2 2.8 9.1-0.8 18.9-8.6 24.1-0.7 0.4-1.3 0.9-2 1.2-18.2 9.6-30.7 28.8-30.7 50.8v49.1c0 22 12.5 41.2 30.7 50.8 4.1 2.2 7.3 5.6 9.3 9.6 2.4 4.8 3 10.4 1.3 15.8-1.7 5.5-2.6 11.3-2.6 17.2 0 15.4 6 29.8 16.8 40.7l34.7 34.7c10.8 10.8 25.3 16.8 40.6 16.8 5.9 0 11.7-0.9 17.2-2.6 7.5-2.3 15.4-0.3 20.9 4.8 1.8 1.6 3.3 3.6 4.5 5.8 9.6 18.2 28.8 30.7 50.8 30.7h49.1c22 0 41.2-12.5 50.8-30.7 4.8-9.1 15.5-13.7 25.4-10.6 5.5 1.7 11.3 2.6 17.2 2.6 15.3 0 29.8-6 40.6-16.8l34.7-34.7c10.8-10.8 16.8-25.3 16.8-40.6 0-5.9-0.9-11.7-2.6-17.2-3.1-9.9 1.5-20.6 10.6-25.4 18.2-9.6 30.7-28.8 30.7-50.8v-49.1c0.2-22-12.3-41.1-30.5-50.8zM914.2 707c0 18.4-14.9 33.2-33.2 33.2-9.3 0-17.5 5.9-20.6 14.6l-0.3 0.8c-2 5.8-4.4 11.7-7.2 17.3l-0.4 0.8c-4 8.3-2.3 18.3 4.2 24.8l15.4 15.4c2.2 2.2 3.4 5 3.4 8.1 0 3.1-1.2 5.9-3.3 8.1L837.4 865c-2.2 2.2-5 3.3-8.1 3.3-3.1 0-5.9-1.2-8.1-3.3l-15.4-15.4c-6.6-6.5-16.5-8.2-24.9-4.2l-0.8 0.4c-3.7 1.8-7.6 3.5-11.5 5-1.9 0.7-3.9 1.5-5.8 2.1l-0.8 0.3c-8.8 3-14.7 11.3-14.7 20.6 0 17.7-13.8 32.1-31.2 33.1-0.7 0-1.3 0.1-2 0.1h-5.6c-18.3 0-33.2-14.9-33.2-33.2 0-9.3-5.9-17.5-14.7-20.6l-0.8-0.3c-5.9-2-11.7-4.4-17.3-7.1l-0.8-0.4c-8.3-4.1-18.3-2.4-24.9 4.2L601.5 865c-2.2 2.2-5 3.3-8.1 3.3-3.1 0-5.9-1.2-8.1-3.3l-34.7-34.7c-2.2-2.2-3.4-5-3.4-8.1 0-3.1 1.2-5.9 3.3-8.1l15.4-15.4c2.7-2.7 4.6-6 5.5-9.5 1.4-5 1-10.5-1.4-15.4l-0.4-0.8c-2.7-5.5-5.1-11.3-7.1-17.2l-0.3-0.8c-3-8.8-11.3-14.7-20.6-14.7-14.9 0-27.5-9.8-31.7-23.4-1-3.1-1.5-6.4-1.5-9.9v-5.6c0-18.4 14.9-33.2 33.2-33.2 9.3 0 17.5-5.9 20.6-14.7l0.3-0.8c2.1-6 4.4-11.8 7.1-17.3l0.4-0.8c1.1-2.3 1.8-4.6 2-7 0.7-6.5-1.4-13.1-6.2-17.8l-15.4-15.4c-2.2-2.2-3.3-5-3.3-8.1 0-3.1 1.1-5.9 3.3-8.1l22.8-22.8 11.9-11.9c2.2-2.2 5-3.3 8.1-3.3 3.1 0 5.9 1.2 8.1 3.3l12.7 12.7 2.6 2.6c3.9 3.9 9.1 6.1 14.4 6.3 3.5 0.2 7.1-0.5 10.5-2.2l0.8-0.4c5.6-2.7 11.4-5.1 17.3-7.1l0.8-0.3c8.8-3 14.7-11.3 14.7-20.6 0-18.3 14.9-33.2 33.2-33.2h5.6c4 0 7.8 0.7 11.3 2 12.8 4.6 21.9 16.9 21.9 31.2 0 9.3 5.9 17.6 14.7 20.6l0.8 0.3c1.9 0.7 3.8 1.4 5.8 2.1 3.9 1.5 7.7 3.2 11.5 5l0.8 0.4c8.3 4 18.3 2.4 24.9-4.2l15.3-15.3c2.2-2.2 5-3.3 8.1-3.3 3.1 0 5.9 1.2 8.1 3.3l34.7 34.8c2.2 2.2 3.3 5 3.3 8.1 0 3.1-1.2 5.9-3.3 8.1l-15.4 15.4c-6.6 6.6-8.2 16.5-4.2 24.9l0.4 0.8c2.7 5.5 5.1 11.4 7.1 17.3l0.3 0.8c3 8.8 11.3 14.7 20.6 14.7 18.3 0 33.2 14.9 33.2 33.2v5.5z" p-id="5330"></path></svg>