<?xml version="1.0" standalone="no"?><!DOCTYPE svg PUBLIC "-//W3C//DTD SVG 1.1//EN" "http://www.w3.org/Graphics/SVG/1.1/DTD/svg11.dtd"><svg t="1539156313126" class="icon" style="" viewBox="0 0 1173 1024" version="1.1" xmlns="http://www.w3.org/2000/svg" p-id="7485" xmlns:xlink="http://www.w3.org/1999/xlink" width="73.3125" height="64"><defs><style type="text/css"></style></defs><path d="M762.137 242.32C762.137 109.436 652.702 0 519.817 0c-132.886 0-242.32 109.435-242.32 242.32 0 132.886 109.434 242.321 242.32 242.321 132.885 3.909 242.32-105.526 242.32-242.32z m406.474 551.085c0-3.909-3.909-7.817-7.817-11.726L984.916 605.802c-11.725-11.726-35.176-11.726-50.81 0-11.724 11.725-11.724 35.175 0 50.809l117.253 117.252H668.336c-19.542 0-35.176 15.633-35.176 35.175 0 19.542 15.634 35.176 35.176 35.176h386.931L938.015 961.466c-11.725 11.725-11.725 35.175 0 50.809 7.817 7.817 15.634 11.725 23.45 11.725 7.817 0 19.543-3.908 23.451-11.725l175.878-175.878c3.908-3.908 3.908-7.817 7.817-11.725 3.908-15.634 3.908-23.45 0-31.267zM672.244 906.748c-58.626 0-105.526-46.9-105.526-105.527 0-58.626 46.9-105.526 105.526-105.526h214.962c-19.542-15.634-27.359-42.993-27.359-70.351V609.71c-89.893-78.168-211.053-125.069-340.03-125.069C234.504 488.55 0 719.145 0 1008.366h863.756c-3.909-7.816-3.909-19.542-3.909-27.358 0-27.36 11.726-50.81 27.36-70.352H672.243z" p-id="7486"></path></svg>