<?xml version="1.0" standalone="no"?><!DOCTYPE svg PUBLIC "-//W3C//DTD SVG 1.1//EN" "http://www.w3.org/Graphics/SVG/1.1/DTD/svg11.dtd"><svg t="1551167130929" class="icon" style="" viewBox="0 0 1024 1024" version="1.1" xmlns="http://www.w3.org/2000/svg" p-id="7891" xmlns:xlink="http://www.w3.org/1999/xlink" width="200" height="200"><defs><style type="text/css"></style></defs><path d="M343.767438 427.450349c-65.37801 0-118.567419-53.18941-118.56742-118.566396s53.18941-118.566396 118.56742-118.566396 118.567419 53.18941 118.567419 118.566396-53.18941 118.566396-118.567419 118.566396z m0-182.212972c-35.094286 0-63.645552 28.551266-63.645553 63.645552s28.551266 63.645552 63.645553 63.645553 63.645552-28.551266 63.645552-63.645553-28.551266-63.645552-63.645552-63.645552z" p-id="7892"></path><path d="M687.840844 996.077044l-292.873304-430.236812a263.265986 263.265986 0 0 1-51.200102 5.009084c-69.973678 0-135.758963-27.249621-185.237865-76.727499-49.478901-49.479925-76.728522-115.26521-76.728522-185.238888s27.248597-135.758963 76.728522-185.238888c49.478901-49.478901 115.264187-76.727499 185.237865-76.727498s135.758963 27.249621 185.237864 76.727498c49.478901 49.479925 76.728522 115.26521 76.728522 185.238888 0 54.983265-17.286712 108.364033-49.078788 152.677285l51.322899 75.698053 137.097448-95.820346 91.066065 129.426745-138.370441 96.708575 11.676947 17.840321 137.187499-95.875605 88.022753 127.013789-138.212852 96.593965 50.28322 74.772984-158.88773 108.158349z m16.205077-85.303828l57.665351-39.254026-49.867758-74.15593 137.51598-96.105849-18.076704-26.084075-138.543379 96.823186-78.957283-120.630404 136.702451-95.54303-20.402679-28.996404-137.974421 96.431259-112.090914-165.325349 15.430434-17.816785c31.526017-36.400025 48.888454-83.006506 48.888454-131.23288 0-110.593817-89.974197-200.568015-200.568015-200.568015s-200.568015 89.974197-200.568015 200.568015 89.974197 200.568015 200.568015 200.568015c17.488303 0 34.792411-2.241041 51.51221-6.66991l25.945929-7.477298" p-id="7893"></path></svg>