<?xml version="1.0" standalone="no"?><!DOCTYPE svg PUBLIC "-//W3C//DTD SVG 1.1//EN" "http://www.w3.org/Graphics/SVG/1.1/DTD/svg11.dtd"><svg t="1540453165747" class="icon" style="" viewBox="0 0 1024 1024" version="1.1" xmlns="http://www.w3.org/2000/svg" p-id="4226" xmlns:xlink="http://www.w3.org/1999/xlink" width="64" height="64"><defs><style type="text/css"></style></defs><path d="M818.468438 616.908328 542.663882 616.908328 542.663882 362.811166 652.678508 362.811166 652.678508 434.666704 708.504978 434.666704 708.504978 362.811166 818.468438 362.811166Z" p-id="4227"></path><path d="M485.825362 616.908328 210.022853 616.908328 210.022853 362.811166 320.088644 362.811166 320.088644 434.666704 375.812783 434.666704 375.812783 362.811166 485.825362 362.811166Z" p-id="4228"></path><path d="M818.468438 914.523633 542.663882 914.523633 542.663882 660.532895 652.678508 660.532895 652.678508 732.387409 708.504978 732.387409 708.504978 660.532895 818.468438 660.532895Z" p-id="4229"></path><path d="M485.825362 914.523633 210.022853 914.523633 210.022853 660.532895 320.088644 660.532895 320.088644 732.387409 375.812783 732.387409 375.812783 660.532895 485.825362 660.532895Z" p-id="4230"></path><path d="M57.393663 310.747393 57.393663 405.53113 512.308527 199.435215 975.554126 405.53113 975.554126 315.950905 516.501012 98.362238Z" p-id="4231"></path></svg>