<?xml version="1.0" standalone="no"?><!DOCTYPE svg PUBLIC "-//W3C//DTD SVG 1.1//EN" "http://www.w3.org/Graphics/SVG/1.1/DTD/svg11.dtd"><svg t="1558495432816" class="icon" style="" viewBox="0 0 1024 1024" version="1.1" xmlns="http://www.w3.org/2000/svg" p-id="2057" xmlns:xlink="http://www.w3.org/1999/xlink" width="200" height="200"><defs><style type="text/css"></style></defs><path d="M785.82 160.726q0 85.091 0 254.545 0 141.818 0 424.727 0 13.818-9.455 23.273-10.182 9.455-23.273 9.455-144.727 0-433.455 0-13.091 0-22.545-9.455-10.182-9.455-10.182-23.273 0-226.182 0-679.273 0-13.818 10.182-23.273 9.455-9.455 22.545-9.455 144.727 0 433.455 0 13.091 0 23.273 9.455 9.455 9.455 9.455 23.273zM319.639 160.726q0 168 0 504.727 0 8.727 0 26.182 144.727 0 433.455 0 0-120.727 0-362.182 0-56.727 0-168.727-144.727 0-433.455 0zM753.093 839.998q0-10.182 0-32 0-28.364 0-84.364-24 0-72 0-120.727 0-361.455 0 0 39.273 0 116.364 24 0 72.727 0 120 0 360.727 0zM509.457 751.271q5.091-5.091 12.364-8t14.545-2.909q7.273 0 14.545 2.909t12.364 8 8 12.364 2.909 14.545q0 7.273-2.909 14.545-2.909 6.545-8 12.364t-12.364 8-14.545 2.909q-7.273 0-14.545-2.909t-12.364-8q-5.091-5.818-8-12.364-2.909-7.273-2.909-14.545 0-7.273 2.909-14.545 2.909-7.273 8-12.364z" p-id="2058"></path></svg>